<?xml version="1.0" encoding="iso-8859-1"?>
<!-- Generator: Adobe Illustrator 19.0.0, SVG Export Plug-In . SVG Version: 6.00 Build 0)  -->
<svg version="1.1" id="Layer_1" xmlns="http://www.w3.org/2000/svg" xmlns:xlink="http://www.w3.org/1999/xlink" x="0px" y="0px"
	 viewBox="0 0 512 512" style="enable-background:new 0 0 512 512;" xml:space="preserve">
<path style="fill:#CBD4D8;" d="M256,512c-5.207,0-8.678-3.471-8.678-8.678V468.61c0-5.207,3.471-8.678,8.678-8.678
	s8.678,3.471,8.678,8.678v34.712C264.678,508.529,261.207,512,256,512"/>
<g>
	<path style="fill:#E8EDEE;" d="M308.068,381.831h17.356c38.183,0,69.424-31.241,69.424-69.424V147.525H117.153v164.881
		c0,38.183,31.241,69.424,69.424,69.424h17.356H308.068z"/>
	<path style="fill:#E8EDEE;" d="M186.576,112.814h-34.712V17.356C151.864,7.81,159.675,0,169.22,0s17.356,7.81,17.356,17.356
		V112.814z"/>
	<path style="fill:#E8EDEE;" d="M325.424,112.814h34.712V17.356C360.136,7.81,352.325,0,342.78,0s-17.356,7.81-17.356,17.356
		V112.814z"/>
</g>
<path style="fill:#CBD4D8;" d="M394.847,147.525H117.153c-9.546,0-17.356-7.81-17.356-17.356s7.81-17.356,17.356-17.356h277.695
	c9.546,0,17.356,7.81,17.356,17.356S404.393,147.525,394.847,147.525"/>
<path style="fill:#E8EDEE;" d="M238.644,468.61h34.712v-43.39h-34.712V468.61z"/>
<path style="fill:#CBD4D8;" d="M221.288,425.22h69.424v-43.39h-69.424V425.22z"/>
<path style="fill:#ECBA16;" d="M229.966,329.763c-2.603,0-4.339-0.868-6.075-2.603c-3.471-3.471-3.471-8.678,0-12.149l45.993-45.993
	h-48.597c-3.471,0-6.942-1.736-7.81-5.207c-1.736-3.471-0.868-6.942,1.736-9.546l60.746-60.746c3.471-3.471,8.678-3.471,12.149,0
	c3.471,3.471,3.471,8.678,0,12.149l-45.993,45.993h48.597c3.471,0,6.942,1.736,7.81,5.207c1.736,3.471,0.868,6.942-1.736,9.546
	l-60.746,60.746C234.305,328.895,232.569,329.763,229.966,329.763"/>
<g>
</g>
<g>
</g>
<g>
</g>
<g>
</g>
<g>
</g>
<g>
</g>
<g>
</g>
<g>
</g>
<g>
</g>
<g>
</g>
<g>
</g>
<g>
</g>
<g>
</g>
<g>
</g>
<g>
</g>
</svg>
